<mxfile host="app.diagrams.net" agent="Mozilla/5.0 (Windows NT 10.0; Win64; x64) AppleWebKit/537.36 (KHTML, like Gecko) Chrome/131.0.0.0 Safari/537.36" version="25.0.1">
  <diagram name="第 1 页" id="4h3OGeKyxE6udTeamHIS">
    <mxGraphModel dx="1434" dy="738" grid="1" gridSize="10" guides="1" tooltips="1" connect="1" arrows="1" fold="1" page="1" pageScale="1" pageWidth="1169" pageHeight="1654" math="0" shadow="0">
      <root>
        <mxCell id="0" />
        <mxCell id="1" parent="0" />
        <mxCell id="oh_nEnpbdWkp0rtcdkt9-1" value="訂單 (OrderForm)" style="swimlane;fontStyle=1;align=center;verticalAlign=top;childLayout=stackLayout;horizontal=1;startSize=26;horizontalStack=0;resizeParent=1;resizeParentMax=0;resizeLast=0;collapsible=1;marginBottom=0;whiteSpace=wrap;html=1;" parent="1" vertex="1">
          <mxGeometry x="1150" y="510" width="440" height="372" as="geometry">
            <mxRectangle x="200" y="140" width="160" height="40" as="alternateBounds" />
          </mxGeometry>
        </mxCell>
        <mxCell id="oh_nEnpbdWkp0rtcdkt9-2" value="- order_form_id: int" style="text;strokeColor=none;fillColor=none;align=left;verticalAlign=top;spacingLeft=4;spacingRight=4;overflow=hidden;rotatable=0;points=[[0,0.5],[1,0.5]];portConstraint=eastwest;whiteSpace=wrap;html=1;" parent="oh_nEnpbdWkp0rtcdkt9-1" vertex="1">
          <mxGeometry y="26" width="440" height="26" as="geometry" />
        </mxCell>
        <mxCell id="oh_nEnpbdWkp0rtcdkt9-3" value="- member_id: int" style="text;strokeColor=none;fillColor=none;align=left;verticalAlign=top;spacingLeft=4;spacingRight=4;overflow=hidden;rotatable=0;points=[[0,0.5],[1,0.5]];portConstraint=eastwest;whiteSpace=wrap;html=1;" parent="oh_nEnpbdWkp0rtcdkt9-1" vertex="1">
          <mxGeometry y="52" width="440" height="26" as="geometry" />
        </mxCell>
        <mxCell id="oh_nEnpbdWkp0rtcdkt9-4" value="- total_amount: int" style="text;strokeColor=none;fillColor=none;align=left;verticalAlign=top;spacingLeft=4;spacingRight=4;overflow=hidden;rotatable=0;points=[[0,0.5],[1,0.5]];portConstraint=eastwest;whiteSpace=wrap;html=1;" parent="oh_nEnpbdWkp0rtcdkt9-1" vertex="1">
          <mxGeometry y="78" width="440" height="26" as="geometry" />
        </mxCell>
        <mxCell id="oh_nEnpbdWkp0rtcdkt9-5" value="- coupon: string" style="text;strokeColor=none;fillColor=none;align=left;verticalAlign=top;spacingLeft=4;spacingRight=4;overflow=hidden;rotatable=0;points=[[0,0.5],[1,0.5]];portConstraint=eastwest;whiteSpace=wrap;html=1;" parent="oh_nEnpbdWkp0rtcdkt9-1" vertex="1">
          <mxGeometry y="104" width="440" height="26" as="geometry" />
        </mxCell>
        <mxCell id="oh_nEnpbdWkp0rtcdkt9-6" value="- consignee_name: string" style="text;strokeColor=none;fillColor=none;align=left;verticalAlign=top;spacingLeft=4;spacingRight=4;overflow=hidden;rotatable=0;points=[[0,0.5],[1,0.5]];portConstraint=eastwest;whiteSpace=wrap;html=1;" parent="oh_nEnpbdWkp0rtcdkt9-1" vertex="1">
          <mxGeometry y="130" width="440" height="26" as="geometry" />
        </mxCell>
        <mxCell id="oh_nEnpbdWkp0rtcdkt9-7" value="- consignee_addr: string" style="text;strokeColor=none;fillColor=none;align=left;verticalAlign=top;spacingLeft=4;spacingRight=4;overflow=hidden;rotatable=0;points=[[0,0.5],[1,0.5]];portConstraint=eastwest;whiteSpace=wrap;html=1;" parent="oh_nEnpbdWkp0rtcdkt9-1" vertex="1">
          <mxGeometry y="156" width="440" height="26" as="geometry" />
        </mxCell>
        <mxCell id="oh_nEnpbdWkp0rtcdkt9-8" value="- consignee_tel: string" style="text;strokeColor=none;fillColor=none;align=left;verticalAlign=top;spacingLeft=4;spacingRight=4;overflow=hidden;rotatable=0;points=[[0,0.5],[1,0.5]];portConstraint=eastwest;whiteSpace=wrap;html=1;" parent="oh_nEnpbdWkp0rtcdkt9-1" vertex="1">
          <mxGeometry y="182" width="440" height="26" as="geometry" />
        </mxCell>
        <mxCell id="oh_nEnpbdWkp0rtcdkt9-9" value="- payment_id: int" style="text;strokeColor=none;fillColor=none;align=left;verticalAlign=top;spacingLeft=4;spacingRight=4;overflow=hidden;rotatable=0;points=[[0,0.5],[1,0.5]];portConstraint=eastwest;whiteSpace=wrap;html=1;" parent="oh_nEnpbdWkp0rtcdkt9-1" vertex="1">
          <mxGeometry y="208" width="440" height="26" as="geometry" />
        </mxCell>
        <mxCell id="oh_nEnpbdWkp0rtcdkt9-10" value="- payment_amount: int" style="text;strokeColor=none;fillColor=none;align=left;verticalAlign=top;spacingLeft=4;spacingRight=4;overflow=hidden;rotatable=0;points=[[0,0.5],[1,0.5]];portConstraint=eastwest;whiteSpace=wrap;html=1;" parent="oh_nEnpbdWkp0rtcdkt9-1" vertex="1">
          <mxGeometry y="234" width="440" height="26" as="geometry" />
        </mxCell>
        <mxCell id="oh_nEnpbdWkp0rtcdkt9-11" value="- payment_status: string" style="text;strokeColor=none;fillColor=none;align=left;verticalAlign=top;spacingLeft=4;spacingRight=4;overflow=hidden;rotatable=0;points=[[0,0.5],[1,0.5]];portConstraint=eastwest;whiteSpace=wrap;html=1;" parent="oh_nEnpbdWkp0rtcdkt9-1" vertex="1">
          <mxGeometry y="260" width="440" height="26" as="geometry" />
        </mxCell>
        <mxCell id="oh_nEnpbdWkp0rtcdkt9-12" value="- create_time: datetime" style="text;strokeColor=none;fillColor=none;align=left;verticalAlign=top;spacingLeft=4;spacingRight=4;overflow=hidden;rotatable=0;points=[[0,0.5],[1,0.5]];portConstraint=eastwest;whiteSpace=wrap;html=1;" parent="oh_nEnpbdWkp0rtcdkt9-1" vertex="1">
          <mxGeometry y="286" width="440" height="26" as="geometry" />
        </mxCell>
        <mxCell id="oh_nEnpbdWkp0rtcdkt9-13" value="" style="line;strokeWidth=1;fillColor=none;align=left;verticalAlign=middle;spacingTop=-1;spacingLeft=3;spacingRight=3;rotatable=0;labelPosition=right;points=[];portConstraint=eastwest;strokeColor=inherit;" parent="oh_nEnpbdWkp0rtcdkt9-1" vertex="1">
          <mxGeometry y="312" width="440" height="8" as="geometry" />
        </mxCell>
        <mxCell id="oh_nEnpbdWkp0rtcdkt9-14" value="+ add_order_form(member_id: int, order_form_serialize: string): int" style="text;strokeColor=none;fillColor=none;align=left;verticalAlign=top;spacingLeft=4;spacingRight=4;overflow=hidden;rotatable=0;points=[[0,0.5],[1,0.5]];portConstraint=eastwest;whiteSpace=wrap;html=1;" parent="oh_nEnpbdWkp0rtcdkt9-1" vertex="1">
          <mxGeometry y="320" width="440" height="26" as="geometry" />
        </mxCell>
        <mxCell id="oh_nEnpbdWkp0rtcdkt9-15" value="+ payment(order_form_id: int, payment_id: int, payment_amount: int): string" style="text;strokeColor=none;fillColor=none;align=left;verticalAlign=top;spacingLeft=4;spacingRight=4;overflow=hidden;rotatable=0;points=[[0,0.5],[1,0.5]];portConstraint=eastwest;whiteSpace=wrap;html=1;" parent="oh_nEnpbdWkp0rtcdkt9-1" vertex="1">
          <mxGeometry y="346" width="440" height="26" as="geometry" />
        </mxCell>
        <mxCell id="oh_nEnpbdWkp0rtcdkt9-16" value="1" style="edgeLabel;resizable=0;html=1;align=left;verticalAlign=bottom;" parent="1" connectable="0" vertex="1">
          <mxGeometry x="1601" y="546" as="geometry" />
        </mxCell>
        <mxCell id="oh_nEnpbdWkp0rtcdkt9-17" value="付款方式 (PaymentType)" style="swimlane;fontStyle=1;align=center;verticalAlign=top;childLayout=stackLayout;horizontal=1;startSize=26;horizontalStack=0;resizeParent=1;resizeParentMax=0;resizeLast=0;collapsible=1;marginBottom=0;whiteSpace=wrap;html=1;" parent="1" vertex="1">
          <mxGeometry x="660" y="510" width="427" height="216" as="geometry">
            <mxRectangle x="200" y="140" width="160" height="40" as="alternateBounds" />
          </mxGeometry>
        </mxCell>
        <mxCell id="oh_nEnpbdWkp0rtcdkt9-18" value="- payment_id: int" style="text;strokeColor=none;fillColor=none;align=left;verticalAlign=top;spacingLeft=4;spacingRight=4;overflow=hidden;rotatable=0;points=[[0,0.5],[1,0.5]];portConstraint=eastwest;whiteSpace=wrap;html=1;" parent="oh_nEnpbdWkp0rtcdkt9-17" vertex="1">
          <mxGeometry y="26" width="427" height="26" as="geometry" />
        </mxCell>
        <mxCell id="oh_nEnpbdWkp0rtcdkt9-19" value="- payment_type: string" style="text;strokeColor=none;fillColor=none;align=left;verticalAlign=top;spacingLeft=4;spacingRight=4;overflow=hidden;rotatable=0;points=[[0,0.5],[1,0.5]];portConstraint=eastwest;whiteSpace=wrap;html=1;" parent="oh_nEnpbdWkp0rtcdkt9-17" vertex="1">
          <mxGeometry y="52" width="427" height="26" as="geometry" />
        </mxCell>
        <mxCell id="oh_nEnpbdWkp0rtcdkt9-20" value="- payment_type_name: string" style="text;strokeColor=none;fillColor=none;align=left;verticalAlign=top;spacingLeft=4;spacingRight=4;overflow=hidden;rotatable=0;points=[[0,0.5],[1,0.5]];portConstraint=eastwest;whiteSpace=wrap;html=1;" parent="oh_nEnpbdWkp0rtcdkt9-17" vertex="1">
          <mxGeometry y="78" width="427" height="26" as="geometry" />
        </mxCell>
        <mxCell id="oh_nEnpbdWkp0rtcdkt9-21" value="- create_time: datetime" style="text;strokeColor=none;fillColor=none;align=left;verticalAlign=top;spacingLeft=4;spacingRight=4;overflow=hidden;rotatable=0;points=[[0,0.5],[1,0.5]];portConstraint=eastwest;whiteSpace=wrap;html=1;" parent="oh_nEnpbdWkp0rtcdkt9-17" vertex="1">
          <mxGeometry y="104" width="427" height="26" as="geometry" />
        </mxCell>
        <mxCell id="oh_nEnpbdWkp0rtcdkt9-22" value="" style="line;strokeWidth=1;fillColor=none;align=left;verticalAlign=middle;spacingTop=-1;spacingLeft=3;spacingRight=3;rotatable=0;labelPosition=right;points=[];portConstraint=eastwest;strokeColor=inherit;" parent="oh_nEnpbdWkp0rtcdkt9-17" vertex="1">
          <mxGeometry y="130" width="427" height="8" as="geometry" />
        </mxCell>
        <mxCell id="oh_nEnpbdWkp0rtcdkt9-23" value="+ add_payment_type(payment_type: string, payment_type_name: string): int" style="text;strokeColor=none;fillColor=none;align=left;verticalAlign=top;spacingLeft=4;spacingRight=4;overflow=hidden;rotatable=0;points=[[0,0.5],[1,0.5]];portConstraint=eastwest;whiteSpace=wrap;html=1;" parent="oh_nEnpbdWkp0rtcdkt9-17" vertex="1">
          <mxGeometry y="138" width="427" height="26" as="geometry" />
        </mxCell>
        <mxCell id="oh_nEnpbdWkp0rtcdkt9-24" value="+ update_payment_type(payment_id: int, payment_name: string): string" style="text;strokeColor=none;fillColor=none;align=left;verticalAlign=top;spacingLeft=4;spacingRight=4;overflow=hidden;rotatable=0;points=[[0,0.5],[1,0.5]];portConstraint=eastwest;whiteSpace=wrap;html=1;" parent="oh_nEnpbdWkp0rtcdkt9-17" vertex="1">
          <mxGeometry y="164" width="427" height="26" as="geometry" />
        </mxCell>
        <mxCell id="oh_nEnpbdWkp0rtcdkt9-25" value="+ delete_payment_type(payment_id: int): bool" style="text;strokeColor=none;fillColor=none;align=left;verticalAlign=top;spacingLeft=4;spacingRight=4;overflow=hidden;rotatable=0;points=[[0,0.5],[1,0.5]];portConstraint=eastwest;whiteSpace=wrap;html=1;" parent="oh_nEnpbdWkp0rtcdkt9-17" vertex="1">
          <mxGeometry y="190" width="427" height="26" as="geometry" />
        </mxCell>
        <mxCell id="oh_nEnpbdWkp0rtcdkt9-26" value="" style="endArrow=open;endFill=1;endSize=12;html=1;rounded=0;exitX=0;exitY=0.5;exitDx=0;exitDy=0;entryX=1;entryY=0.5;entryDx=0;entryDy=0;" parent="1" source="oh_nEnpbdWkp0rtcdkt9-9" target="oh_nEnpbdWkp0rtcdkt9-18" edge="1">
          <mxGeometry relative="1" as="geometry">
            <mxPoint x="1150" y="650" as="sourcePoint" />
            <mxPoint x="1075" y="630" as="targetPoint" />
            <Array as="points">
              <mxPoint x="1120" y="731" />
              <mxPoint x="1120" y="549" />
            </Array>
          </mxGeometry>
        </mxCell>
        <mxCell id="oh_nEnpbdWkp0rtcdkt9-27" value="1" style="edgeLabel;resizable=0;html=1;align=left;verticalAlign=bottom;" parent="oh_nEnpbdWkp0rtcdkt9-26" connectable="0" vertex="1">
          <mxGeometry x="-1" relative="1" as="geometry">
            <mxPoint x="-17" y="-4" as="offset" />
          </mxGeometry>
        </mxCell>
        <mxCell id="oh_nEnpbdWkp0rtcdkt9-28" value="1" style="edgeLabel;resizable=0;html=1;align=right;verticalAlign=bottom;" parent="oh_nEnpbdWkp0rtcdkt9-26" connectable="0" vertex="1">
          <mxGeometry x="1" relative="1" as="geometry">
            <mxPoint x="22" y="-5" as="offset" />
          </mxGeometry>
        </mxCell>
        <mxCell id="oh_nEnpbdWkp0rtcdkt9-29" value="匯款支付 (RemittancePayment)" style="swimlane;fontStyle=1;align=center;verticalAlign=top;childLayout=stackLayout;horizontal=1;startSize=26;horizontalStack=0;resizeParent=1;resizeParentMax=0;resizeLast=0;collapsible=1;marginBottom=0;whiteSpace=wrap;html=1;" parent="1" vertex="1">
          <mxGeometry x="660" y="860" width="427" height="204" as="geometry">
            <mxRectangle x="200" y="140" width="160" height="40" as="alternateBounds" />
          </mxGeometry>
        </mxCell>
        <mxCell id="oh_nEnpbdWkp0rtcdkt9-31" value="- receiving_bank: string" style="text;strokeColor=none;fillColor=none;align=left;verticalAlign=top;spacingLeft=4;spacingRight=4;overflow=hidden;rotatable=0;points=[[0,0.5],[1,0.5]];portConstraint=eastwest;whiteSpace=wrap;html=1;" parent="oh_nEnpbdWkp0rtcdkt9-29" vertex="1">
          <mxGeometry y="26" width="427" height="26" as="geometry" />
        </mxCell>
        <mxCell id="oh_nEnpbdWkp0rtcdkt9-32" value="- receiving_account_number: string" style="text;strokeColor=none;fillColor=none;align=left;verticalAlign=top;spacingLeft=4;spacingRight=4;overflow=hidden;rotatable=0;points=[[0,0.5],[1,0.5]];portConstraint=eastwest;whiteSpace=wrap;html=1;" parent="oh_nEnpbdWkp0rtcdkt9-29" vertex="1">
          <mxGeometry y="52" width="427" height="26" as="geometry" />
        </mxCell>
        <mxCell id="oh_nEnpbdWkp0rtcdkt9-41" value="- remitter: string" style="text;strokeColor=none;fillColor=none;align=left;verticalAlign=top;spacingLeft=4;spacingRight=4;overflow=hidden;rotatable=0;points=[[0,0.5],[1,0.5]];portConstraint=eastwest;whiteSpace=wrap;html=1;" parent="oh_nEnpbdWkp0rtcdkt9-29" vertex="1">
          <mxGeometry y="78" width="427" height="26" as="geometry" />
        </mxCell>
        <mxCell id="oh_nEnpbdWkp0rtcdkt9-42" value="- last_five_digits: string" style="text;strokeColor=none;fillColor=none;align=left;verticalAlign=top;spacingLeft=4;spacingRight=4;overflow=hidden;rotatable=0;points=[[0,0.5],[1,0.5]];portConstraint=eastwest;whiteSpace=wrap;html=1;" parent="oh_nEnpbdWkp0rtcdkt9-29" vertex="1">
          <mxGeometry y="104" width="427" height="26" as="geometry" />
        </mxCell>
        <mxCell id="oh_nEnpbdWkp0rtcdkt9-40" value="- remitter_contact_info: string" style="text;strokeColor=none;fillColor=none;align=left;verticalAlign=top;spacingLeft=4;spacingRight=4;overflow=hidden;rotatable=0;points=[[0,0.5],[1,0.5]];portConstraint=eastwest;whiteSpace=wrap;html=1;" parent="oh_nEnpbdWkp0rtcdkt9-29" vertex="1">
          <mxGeometry y="130" width="427" height="26" as="geometry" />
        </mxCell>
        <mxCell id="oh_nEnpbdWkp0rtcdkt9-34" value="" style="line;strokeWidth=1;fillColor=none;align=left;verticalAlign=middle;spacingTop=-1;spacingLeft=3;spacingRight=3;rotatable=0;labelPosition=right;points=[];portConstraint=eastwest;strokeColor=inherit;" parent="oh_nEnpbdWkp0rtcdkt9-29" vertex="1">
          <mxGeometry y="156" width="427" height="8" as="geometry" />
        </mxCell>
        <mxCell id="oh_nEnpbdWkp0rtcdkt9-36" value="+ update_remittance(remitter: string, last_five_digits: string, remitter_contact_info: string): bool" style="text;strokeColor=none;fillColor=none;align=left;verticalAlign=top;spacingLeft=4;spacingRight=4;overflow=hidden;rotatable=0;points=[[0,0.5],[1,0.5]];portConstraint=eastwest;whiteSpace=wrap;html=1;" parent="oh_nEnpbdWkp0rtcdkt9-29" vertex="1">
          <mxGeometry y="164" width="427" height="40" as="geometry" />
        </mxCell>
        <mxCell id="oh_nEnpbdWkp0rtcdkt9-38" value="" style="endArrow=block;endSize=16;endFill=0;html=1;rounded=0;exitX=0.5;exitY=0;exitDx=0;exitDy=0;entryX=0.499;entryY=1.077;entryDx=0;entryDy=0;entryPerimeter=0;" parent="1" source="oh_nEnpbdWkp0rtcdkt9-29" target="oh_nEnpbdWkp0rtcdkt9-25" edge="1">
          <mxGeometry width="160" relative="1" as="geometry">
            <mxPoint x="480" y="610" as="sourcePoint" />
            <mxPoint x="860" y="750" as="targetPoint" />
          </mxGeometry>
        </mxCell>
      </root>
    </mxGraphModel>
  </diagram>
</mxfile>
